<svg xmlns="http://www.w3.org/2000/svg" viewBox="74 16 112 110" width="100%" height="100%">
  <!-- Orange spiral -->
  <path d="M 181.359375 95.839844 C 179.1875 91.777344 175.519531 88.503906 170.878906 86.984375 C 170.5625 86.882812 170.246094 86.789062 169.933594 86.703125 C 166.246094 85.714844 162.480469 85.960938 159.117188 87.207031 C 157.164062 87.929688 156.152344 90.144531 156.859375 92.148438 C 157.566406 94.15625 159.722656 95.191406 161.675781 94.46875 C 163.660156 93.734375 165.847656 93.589844 168.027344 94.171875 C 168.214844 94.222656 168.402344 94.277344 168.589844 94.339844 C 171.339844 95.242188 173.46875 97.148438 174.761719 99.554688 C 176.046875 101.964844 176.460938 104.828125 175.742188 107.644531 C 175.695312 107.832031 175.644531 108.019531 175.585938 108.203125 C 174.714844 111.015625 172.871094 113.1875 170.53125 114.507812 C 168.195312 115.820312 165.410156 116.246094 162.660156 115.507812 C 162.476562 115.457031 162.289062 115.402344 162.101562 115.339844 C 160.730469 114.890625 159.527344 114.183594 158.492188 113.300781 C 158.097656 112.839844 157.769531 112.308594 157.546875 111.683594 C 157.195312 110.675781 157.171875 109.664062 157.414062 108.707031 C 157.613281 107.929688 157.992188 107.203125 158.515625 106.601562 C 159.039062 106.003906 159.699219 105.53125 160.5 105.234375 C 161.484375 104.871094 162.46875 104.847656 163.402344 105.097656 C 164.160156 105.300781 164.867188 105.691406 165.453125 106.226562 C 166.035156 106.765625 166.496094 107.441406 166.785156 108.265625 C 167.488281 110.269531 169.648438 111.308594 171.601562 110.585938 C 173.558594 109.863281 174.570312 107.648438 173.863281 105.644531 C 173.148438 103.601562 171.957031 101.839844 170.476562 100.476562 C 168.992188 99.113281 167.222656 98.140625 165.308594 97.625 C 162.964844 96.996094 160.390625 97.066406 157.945312 97.972656 C 155.953125 98.707031 154.238281 99.929688 152.910156 101.449219 C 151.582031 102.96875 150.632812 104.789062 150.132812 106.75 C 149.515625 109.15625 149.585938 111.796875 150.46875 114.304688 C 150.980469 115.765625 151.742188 117.074219 152.671875 118.203125 C 152.835938 118.445312 153.027344 118.675781 153.253906 118.878906 C 153.277344 118.898438 153.300781 118.917969 153.324219 118.9375 C 153.976562 119.617188 154.691406 120.21875 155.464844 120.722656 C 155.75 120.910156 156.050781 121.046875 156.355469 121.144531 C 157.4375 121.773438 158.589844 122.296875 159.8125 122.695312 C 160.125 122.796875 160.441406 122.890625 160.757812 122.976562 C 165.421875 124.230469 170.199219 123.503906 174.152344 121.277344 C 178.109375 119.058594 181.289062 115.296875 182.761719 110.539062 C 182.855469 110.226562 182.945312 109.914062 183.023438 109.601562 C 184.246094 104.8125 183.535156 99.902344 181.359375 95.839844" fill="#F36E21"/>
  <!-- Teal spiral -->
  <path d="M 94.425781 48.773438 C 94.515625 48.878906 95.234375 49.625 95.542969 49.816406 C 96.632812 50.722656 97.882812 51.460938 99.234375 51.9375 C 100.566406 52.40625 101.9375 52.636719 103.285156 52.636719 C 105.871094 52.632812 108.359375 51.804688 110.429688 50.316406 C 112.5 48.828125 114.160156 46.65625 115.042969 44.027344 C 115.5 42.660156 115.722656 41.253906 115.722656 39.871094 C 115.722656 37.21875 114.914062 34.664062 113.460938 32.539062 C 112.015625 30.417969 109.898438 28.714844 107.332031 27.808594 C 105.367188 27.113281 103.226562 28.1875 102.550781 30.203125 C 101.871094 32.21875 102.917969 34.414062 104.882812 35.109375 C 105.910156 35.476562 106.722656 36.132812 107.300781 36.972656 C 107.878906 37.816406 108.199219 38.835938 108.195312 39.871094 C 108.195312 40.414062 108.109375 40.960938 107.925781 41.515625 C 107.570312 42.570312 106.929688 43.398438 106.109375 43.996094 C 105.289062 44.585938 104.296875 44.914062 103.285156 44.914062 C 102.757812 44.914062 102.222656 44.828125 101.683594 44.636719 C 101.085938 44.421875 100.566406 44.101562 100.117188 43.714844 C 99.242188 42.652344 98.542969 41.414062 98.09375 40 C 97.730469 38.855469 97.558594 37.707031 97.558594 36.578125 C 97.558594 34.265625 98.28125 32.019531 99.570312 30.171875 C 100.859375 28.324219 102.695312 26.882812 104.972656 26.121094 C 106.078125 25.753906 107.1875 25.582031 108.28125 25.582031 C 110.539062 25.582031 112.734375 26.324219 114.550781 27.652344 C 116.359375 28.984375 117.777344 30.875 118.523438 33.222656 C 118.886719 34.367188 119.054688 35.515625 119.058594 36.644531 C 119.058594 37.90625 118.84375 39.144531 118.4375 40.3125 C 117.746094 42.320312 118.769531 44.527344 120.726562 45.242188 C 122.6875 45.957031 124.839844 44.902344 125.53125 42.894531 C 126.21875 40.910156 126.582031 38.800781 126.582031 36.644531 C 126.582031 34.714844 126.289062 32.753906 125.679688 30.828125 C 124.425781 26.878906 121.992188 23.617188 118.925781 21.371094 C 115.855469 19.121094 112.144531 17.863281 108.28125 17.863281 C 106.414062 17.859375 104.511719 18.15625 102.652344 18.777344 C 98.804688 20.054688 95.632812 22.542969 93.445312 25.679688 C 91.257812 28.820312 90.035156 32.621094 90.035156 36.578125 C 90.035156 38.507812 90.328125 40.46875 90.9375 42.390625 C 91.308594 43.550781 91.78125 44.652344 92.339844 45.6875 C 92.339844 45.6875 93.351562 47.800781 94.425781 48.773438" fill="#21BDBC"/>
  <!-- Green spiral -->
  <path d="M 107.886719 91.601562 C 106.960938 89.773438 105.578125 88.140625 103.808594 86.917969 C 101.6875 85.445312 99.25 84.730469 96.859375 84.734375 C 94.863281 84.734375 92.890625 85.226562 91.109375 86.175781 C 89.328125 87.125 87.734375 88.542969 86.542969 90.359375 C 85.378906 92.125 85.835938 94.523438 87.558594 95.71875 C 89.28125 96.910156 91.621094 96.445312 92.78125 94.675781 C 93.261719 93.945312 93.878906 93.402344 94.578125 93.023438 C 95.28125 92.652344 96.070312 92.453125 96.859375 92.453125 C 97.808594 92.457031 98.746094 92.726562 99.597656 93.316406 C 100.3125 93.8125 100.839844 94.441406 101.207031 95.160156 C 101.574219 95.882812 101.765625 96.691406 101.765625 97.503906 C 101.761719 98.476562 101.496094 99.433594 100.925781 100.3125 C 100.492188 100.964844 99.941406 101.464844 99.328125 101.832031 C 98.210938 102.316406 97.003906 102.621094 95.714844 102.695312 C 95.515625 102.703125 95.324219 102.710938 95.128906 102.710938 C 92.289062 102.710938 89.699219 101.574219 87.761719 99.699219 C 85.828125 97.816406 84.578125 95.234375 84.429688 92.285156 C 84.417969 92.089844 84.414062 91.898438 84.414062 91.707031 C 84.414062 88.796875 85.523438 86.136719 87.363281 84.136719 C 89.207031 82.144531 91.734375 80.855469 94.621094 80.695312 C 94.816406 80.683594 95.011719 80.679688 95.203125 80.679688 C 97.453125 80.679688 99.535156 81.386719 101.273438 82.613281 C 102.984375 83.820312 105.328125 83.378906 106.507812 81.621094 C 107.683594 79.863281 107.253906 77.460938 105.539062 76.25 C 102.59375 74.171875 99.011719 72.957031 95.203125 72.957031 C 94.875 72.957031 94.550781 72.964844 94.21875 72.984375 C 89.351562 73.246094 84.996094 75.460938 81.894531 78.828125 C 78.789062 82.195312 76.886719 86.757812 76.886719 91.707031 C 76.886719 92.03125 76.894531 92.355469 76.910156 92.683594 C 77.160156 97.671875 79.3125 102.132812 82.589844 105.308594 C 85.863281 108.488281 90.308594 110.433594 95.128906 110.429688 C 95.457031 110.429688 95.785156 110.421875 96.113281 110.402344 C 97.429688 110.332031 98.710938 110.117188 99.9375 109.777344 C 100.222656 109.75 100.507812 109.695312 100.789062 109.597656 C 101.4375 109.378906 102.066406 109.097656 102.679688 108.765625 C 102.921875 108.652344 103.164062 108.539062 103.398438 108.414062 C 103.824219 108.195312 104.1875 107.902344 104.488281 107.558594 C 105.5 106.75 106.410156 105.773438 107.164062 104.628906 C 108.597656 102.453125 109.292969 99.953125 109.289062 97.503906 C 109.289062 95.453125 108.8125 93.429688 107.886719 91.601562" fill="#85BC3A"/>
  <!-- Yellow spiral -->
  <path d="M 178.691406 59.21875 C 178.695312 56.359375 178.046875 53.441406 176.695312 50.726562 C 175.085938 47.492188 172.660156 44.921875 169.824219 43.179688 C 166.980469 41.433594 163.722656 40.503906 160.394531 40.503906 C 157.601562 40.5 154.753906 41.164062 152.105469 42.546875 C 148.378906 44.484375 145.5625 47.585938 143.894531 51.179688 C 143 53.105469 143.796875 55.410156 145.671875 56.328125 C 147.550781 57.246094 149.796875 56.425781 150.6875 54.5 C 151.675781 52.382812 153.304688 50.582031 155.515625 49.429688 C 157.09375 48.605469 158.75 48.222656 160.394531 48.222656 C 162.351562 48.222656 164.285156 48.773438 165.957031 49.800781 C 167.628906 50.832031 169.035156 52.320312 169.992188 54.238281 C 170.792969 55.851562 171.164062 57.542969 171.167969 59.21875 C 171.167969 61.222656 170.628906 63.195312 169.625 64.90625 C 168.621094 66.617188 167.167969 68.0625 165.289062 69.039062 C 163.90625 69.765625 162.457031 70.144531 161.007812 70.230469 C 160.992188 70.230469 160.976562 70.230469 160.957031 70.234375 C 160.425781 70.171875 159.890625 70.015625 159.367188 69.757812 C 158.484375 69.3125 157.808594 68.65625 157.335938 67.867188 C 156.863281 67.074219 156.605469 66.152344 156.609375 65.222656 C 156.609375 64.480469 156.765625 63.738281 157.105469 63.019531 C 157.539062 62.113281 158.175781 61.421875 158.949219 60.933594 C 159.71875 60.449219 160.621094 60.1875 161.527344 60.1875 C 162.246094 60.1875 162.96875 60.347656 163.675781 60.699219 C 165.539062 61.636719 167.792969 60.839844 168.703125 58.921875 C 169.613281 57.003906 168.839844 54.695312 166.972656 53.757812 C 165.226562 52.886719 163.355469 52.464844 161.527344 52.464844 C 159.21875 52.46875 156.972656 53.125 155.019531 54.347656 C 153.070312 55.570312 151.414062 57.378906 150.34375 59.632812 C 149.488281 61.425781 149.082031 63.34375 149.082031 65.222656 C 149.082031 67.589844 149.722656 69.894531 150.914062 71.898438 C 152.105469 73.898438 153.871094 75.597656 156.070312 76.695312 C 157.8125 77.570312 159.683594 77.988281 161.515625 77.988281 C 161.515625 77.988281 161.644531 77.992188 161.882812 77.980469 C 162.601562 77.957031 163.3125 77.875 164.011719 77.730469 C 164.105469 77.710938 164.195312 77.675781 164.289062 77.648438 C 167.023438 77.058594 171.261719 75.460938 174.558594 71.097656 L 174.554688 71.097656 C 175.113281 70.394531 175.625 69.65625 176.074219 68.886719 C 177.78125 65.976562 178.691406 62.636719 178.691406 59.21875" fill="#FCB814"/>
  <!-- Tree trunk -->
  <path d="M 154.421875 91.441406 C 154.421875 90.347656 154.726562 89.332031 155.246094 88.464844 C 153.925781 89.0625 152.507812 89.785156 151.042969 90.671875 C 149.035156 91.882812 146.945312 93.394531 144.929688 95.277344 C 143.351562 96.75 141.824219 98.460938 140.425781 100.417969 C 140.175781 97.675781 139.996094 94.570312 139.996094 91.242188 C 139.996094 84.800781 140.664062 77.550781 142.65625 70.582031 C 143.65625 67.097656 144.980469 63.6875 146.710938 60.460938 C 146.96875 59.984375 147.234375 59.515625 147.507812 59.046875 C 147.34375 59.0625 147.179688 59.066406 147.011719 59.066406 C 144.246094 59.066406 141.957031 56.992188 141.53125 54.277344 C 141.035156 55.089844 140.5625 55.910156 140.117188 56.738281 C 137.074219 62.410156 135.171875 68.433594 134.019531 74.328125 C 132.871094 80.226562 132.472656 86.007812 132.472656 91.242188 C 132.472656 91.386719 132.472656 91.527344 132.472656 91.675781 C 131.609375 90.359375 130.675781 88.800781 129.738281 86.992188 C 126.488281 80.722656 123.285156 71.640625 123.28125 60.085938 C 123.285156 55.972656 123.695312 51.535156 124.660156 46.785156 C 123.804688 47.335938 122.800781 47.65625 121.71875 47.65625 C 119.890625 47.65625 118.273438 46.75 117.261719 45.355469 C 116.214844 50.566406 115.757812 55.492188 115.757812 60.085938 C 115.757812 69.953125 117.839844 78.28125 120.453125 84.84375 C 118.0625 83.03125 115.78125 81.605469 113.800781 80.511719 C 112.164062 79.605469 110.738281 78.925781 109.617188 78.433594 C 109.75 79.316406 109.6875 80.238281 109.382812 81.140625 C 108.703125 83.167969 107.019531 84.546875 105.101562 84.898438 C 105.773438 85.148438 107.355469 85.777344 109.445312 86.882812 C 113.632812 89.09375 119.804688 93.203125 124.851562 99.878906 C 127.375 103.21875 129.632812 107.195312 131.269531 111.949219 C 132.316406 114.992188 133.105469 118.359375 133.542969 122.089844 C 134.695312 121.3125 136.070312 120.859375 137.550781 120.859375 C 138.882812 120.859375 140.125 121.230469 141.199219 121.867188 C 141.40625 115.917969 142.8125 111.34375 144.789062 107.699219 C 146.394531 104.746094 148.398438 102.398438 150.527344 100.503906 C 152.628906 98.636719 154.859375 97.234375 156.90625 96.191406 C 155.410156 95.171875 154.421875 93.425781 154.421875 91.441406" fill="#1E293B"/>
</svg>
